<svg width="324" height="249" viewBox="0 0 324 249" fill="none" xmlns="http://www.w3.org/2000/svg">
<path opacity="0.3" d="M287.5 105.286H289.325C311.225 105.286 324 92.7107 324 71.1536V-76.1535C324 -97.7107 311.225 -110.286 289.325 -110.286H287.5C265.6 -110.286 254.65 -124.657 254.65 -144.418V-148.011C254.65 -169.568 238.225 -185.736 216.325 -185.736H212.675C192.6 -185.736 178 -196.514 178 -218.071V-219.868C178 -241.425 165.225 -254 143.325 -254H66.675C44.775 -254 32 -241.425 32 -219.868V-218.071C32 -196.514 17.4 -185.736 -2.67501 -185.736H-6.325C-28.225 -185.736 -44.65 -169.568 -44.65 -148.011V-144.418C-44.65 -124.657 -55.6 -110.286 -77.5 -110.286H-79.325C-101.225 -110.286 -114 -97.7107 -114 -76.1535V71.1536C-114 92.7107 -101.225 105.286 -79.325 105.286H-77.5C-55.6 105.286 -44.65 119.657 -44.65 139.418V143.011C-44.65 164.568 -28.225 180.736 -6.325 180.736H-2.67501C17.4 180.736 32 191.514 32 213.071V214.868C32 236.425 44.775 249 66.675 249H143.325C165.225 249 178 236.425 178 214.868V213.071C178 191.514 192.6 180.736 212.675 180.736H216.325C238.225 180.736 254.65 164.568 254.65 143.011V139.418C254.65 119.657 265.6 105.286 287.5 105.286ZM251 -74.3571V69.3571C251 90.9143 236.4 101.693 216.325 101.693H212.675C190.775 101.693 174.35 117.861 174.35 139.418V143.011C174.35 162.771 163.4 177.143 141.5 177.143H68.5C46.6 177.143 35.65 162.771 35.65 143.011V139.418C35.65 117.861 19.225 101.693 -2.67501 101.693H-6.325C-26.4 101.693 -41 90.9143 -41 69.3571V-74.3571C-41 -95.9143 -26.4 -106.693 -6.325 -106.693H-2.67501C19.225 -106.693 35.65 -122.861 35.65 -144.418V-148.011C35.65 -167.771 46.6 -182.143 68.5 -182.143H141.5C163.4 -182.143 174.35 -167.771 174.35 -148.011V-144.418C174.35 -122.861 190.775 -106.693 212.675 -106.693H216.325C236.4 -106.693 251 -95.9143 251 -74.3571Z" fill="black"/>
</svg>
