<svg width="41" height="40" viewBox="0 0 41 40" fill="none" xmlns="http://www.w3.org/2000/svg">
<path d="M16.0195 3.33398V6.66732M24.3529 3.33398V6.66732M16.0195 33.334V36.6673M24.3529 33.334V36.6673M36.8529 24.1673H33.5195M6.85286 15.834H3.51953M6.85286 24.1673H3.51953M36.8529 15.834H33.5195M21.3429 14.1673L17.8579 18.3957C17.4845 18.849 17.7512 19.5007 18.3612 19.6223L22.0112 20.3457C22.6612 20.474 22.9079 21.1957 22.4545 21.6357L18.1312 25.834" stroke="white" stroke-width="3" stroke-linecap="round" stroke-linejoin="round"/>
<path d="M6.85254 20.0013C6.85254 13.7163 6.85254 10.573 8.80587 8.6213C10.7592 6.66964 13.9009 6.66797 20.1859 6.66797C26.4709 6.66797 29.6142 6.66797 31.5659 8.6213C33.5175 10.5746 33.5192 13.7163 33.5192 20.0013C33.5192 26.2863 33.5192 29.4296 31.5659 31.3813C29.6125 33.333 26.4709 33.3346 20.1859 33.3346C13.9009 33.3346 10.7575 33.3346 8.80587 31.3813C6.85421 29.428 6.85254 26.2863 6.85254 20.0013Z" stroke="white" stroke-width="3" stroke-linecap="round" stroke-linejoin="round"/>
</svg>
