<svg width="71" height="47" viewBox="0 0 71 47" fill="none" xmlns="http://www.w3.org/2000/svg">
<path d="M40.5301 18.4668C38.2789 18.4668 36.3277 20.0198 35.7266 21.8844H43.9821C43.9821 19.8653 42.632 18.4668 40.5301 18.4668Z" fill="#FF073C"/>
<path d="M35.4254 0.136719C15.9114 0.136719 0 8.52495 0 21.1059C0 29.1824 6.60418 36.328 16.5111 40.3663L15.4609 46.2692C44.4313 48.7545 71 39.2795 71 21.4162C70.8494 6.34997 51.3367 0.136719 35.4254 0.136719Z" fill="#FF073C"/>
<path d="M38.8212 33.3394C42.8744 33.3394 46.1758 31.3202 47.6779 27.5923H42.7238C41.8228 28.8349 40.7725 29.4556 39.1211 29.4556C37.0192 29.4556 35.3679 27.9026 35.2186 25.8835H48.1271C50.0783 19.6702 46.9262 14.8555 40.6219 14.8555C35.5185 14.8555 31.9158 17.8069 31.0148 22.7775C29.9659 28.8349 33.2673 33.3394 38.8212 33.3394ZM40.6232 18.7379C42.8744 18.7379 44.2259 20.1364 44.2259 22.1555H35.9703C36.4195 20.2922 38.2214 18.7379 40.6232 18.7379Z" fill="#F8F6F3"/>
<path d="M27.1145 33.3405H28.3154L29.2164 28.836H28.1661C26.5147 28.836 25.7643 27.5934 26.0642 25.7301L27.2651 19.2065H31.0183L31.9193 14.7021H28.1647L28.9151 10.3535H24.1116L21.2593 25.5756C20.5103 30.0787 22.3109 33.3405 27.1145 33.3405Z" fill="#F8F6F3"/>
<path d="M55.7845 33.3399H57.136L58.037 28.8354H56.9867C55.3354 28.8354 54.4344 27.5928 54.8849 25.7295L57.7371 10.3516H52.9336L50.0813 25.5737C49.179 30.3884 51.2809 33.3399 55.7845 33.3399Z" fill="#F8F6F3"/>
<path d="M22.3098 10.5078H17.5062L16.7559 15.0122H21.4088L22.3098 10.5078Z" fill="#F8F6F3"/>
<path d="M21.109 16.873H16.3055L13.1533 33.3378H17.9569L21.109 16.873Z" fill="#F8F6F3"/>
</svg>
