<svg width="57" height="56" viewBox="0 0 57 56" fill="none" xmlns="http://www.w3.org/2000/svg">
<path d="M24.75 5H35.25C44 5 47.5 9.6 47.5 21.1V34.9C47.5 46.4 44 51 35.25 51H24.75C16 51 12.5 46.4 12.5 34.9V21.1C12.5 9.6 16 5 24.75 5Z" stroke="url(#paint0_linear_7159_73593)" stroke-width="1.5" stroke-linecap="round" stroke-linejoin="round"/>
<path d="M29.9 9H31.1C32.1 9 32.5 9.4 32.5 10.4V11.6C32.5 12.6 32.1 13 31.1 13H29.9C28.9 13 28.5 12.6 28.5 11.6V10.4C28.5 9.4 28.9 9 29.9 9Z" stroke="url(#paint1_linear_7159_73593)" stroke-width="1.5" stroke-linecap="round" stroke-linejoin="round"/>
<defs>
<linearGradient id="paint0_linear_7159_73593" x1="12.5" y1="28" x2="47.5" y2="28" gradientUnits="userSpaceOnUse">
<stop stop-color="#ACC887"/>
<stop offset="1" stop-color="#3E9C6F"/>
</linearGradient>
<linearGradient id="paint1_linear_7159_73593" x1="28.5" y1="11" x2="32.5" y2="11" gradientUnits="userSpaceOnUse">
<stop stop-color="#ACC887"/>
<stop offset="1" stop-color="#3E9C6F"/>
</linearGradient>
</defs>
</svg>
